# xmcd
#
# Track frame offsets:
#	150
#	12562
#	25257
#	36917
#	48702
#	60747
#	72412
#	85380
#	97610
#	110100
#	123607
#	136380
#	147840
#	156537
#	170065
#	182547
#	194662
#	206177
#	219367
#	230852
#	244117
#	257175
#	269740
#	278827
#	291192
#	301910
#	314317
#	326517
#	340207
#
# Disc length: 4678 seconds
# Revision: 4
# Processed by: cddbd v1.5.2PL0 Copyright (c) Steve Scherf et al.
# Submitted via: dBpowerAMP V12.0
#
DISCID=d412441d
DTITLE=Marty Robbins - Country 1951 - 1958, Volume 1, CD01 - CD05
DYEAR=1991
DGENRE=Country
TTITLE0=Tomorrow You'll Be Gone
TTITLE1=I Wish Somebody Loves Me
TTITLE2=Love Me Or Leave Me Alone
TTITLE3=Crying 'cause I Love You
TTITLE4=I'll Go On Alone
TTITLE5=Pretty Words
TTITLE6=You're Breaking My Heart
TTITLE7=I Can Get Along (Without You Very Well)
TTITLE8=I Couldn't Keep From Crying
TTITLE9=Just In Time
TTITLE10=Crazy Little Heart
TTITLE11=After You Leave
TTITLE12=Lorelei
TTITLE13=A Castle In The Sky
TTITLE14=Your Heart's Turn To Break
TTITLE15=Why Keep Wishing (You Don't Care)
TTITLE16=A Half-Way Chance With You
TTITLE17=Sing Me Something Sentimental
TTITLE18=At The End Of A Long Lonely Day
TTITLE19=Blessed Jesus, Should I Fall Don't Let Me Lay
TTITLE20=Kneel And Let The Lord Take Your Load
TTITLE21=Don't Make Me Ashamed
TTITLE22=It's A Long, Long Ride
TTITLE23=It Looks Like I'm Just In Your Way
TTITLE24=I'm Happy 'cause You're Hurtin'
TTITLE25=My Isle Of Golden Dreams
TTITLE26=Have Thine Own Way, Lord
TTITLE27=God Understands
TTITLE28=Aloha Oe (Farewell To Thee)
EXTD=
EXTT0=
EXTT1=
EXTT2=
EXTT3=
EXTT4=
EXTT5=
EXTT6=
EXTT7=
EXTT8=
EXTT9=
EXTT10=
EXTT11=
EXTT12=
EXTT13=
EXTT14=
EXTT15=
EXTT16=
EXTT17=
EXTT18=
EXTT19=
EXTT20=
EXTT21=
EXTT22=
EXTT23=
EXTT24=
EXTT25=
EXTT26=
EXTT27=
EXTT28=
PLAYORDER=
